<svg xmlns="http://www.w3.org/2000/svg" width="440.92" height="110.288" viewBox="0 0 440.92 110.288">
  <g id="Group_12" data-name="Group 12" transform="translate(-65.77 -600)">
    <g id="Group_1" data-name="Group 1" transform="translate(65.77 600)">
      <rect id="Rectangle_4" data-name="Rectangle 4" width="31.194" height="31.194" transform="translate(44.115 22.058) rotate(45)" fill="#179978" opacity="0.6"/>
      <path id="Rectangle_11" data-name="Rectangle 11" d="M0,0H31.194V31.194H4a4,4,0,0,1-4-4Z" transform="translate(22.058 44.115) rotate(45)" fill="#179978" opacity="0.8"/>
      <rect id="Rectangle_7" data-name="Rectangle 7" width="31.194" height="31.194" transform="translate(88.23 22.058) rotate(45)" fill="#179978" opacity="0.6"/>
      <rect id="Rectangle_9" data-name="Rectangle 9" width="31.194" height="31.194" transform="translate(66.172 44.115) rotate(45)" fill="#179978" opacity="0.8"/>
      <path id="Rectangle_13" data-name="Rectangle 13" d="M0,0H31.194V27.194a4,4,0,0,1-4,4H0Z" transform="translate(88.23 66.173) rotate(45)" fill="#179978"/>
      <path id="Rectangle_14" data-name="Rectangle 14" d="M0,0H31.194V27.194a4,4,0,0,1-4,4H0Z" transform="translate(44.115 66.173) rotate(45)" fill="#179978"/>
      <path id="Rectangle_15" data-name="Rectangle 15" d="M0,0H31.194V27.194a4,4,0,0,1-4,4H0Z" transform="translate(132.345 66.173) rotate(45)" fill="#179978"/>
      <rect id="Rectangle_10" data-name="Rectangle 10" width="31.194" height="31.194" transform="translate(110.287 44.115) rotate(45)" fill="#179978" opacity="0.8"/>
      <path id="Rectangle_12" data-name="Rectangle 12" d="M0,0H27.194a4,4,0,0,1,4,4V31.194H0Z" transform="translate(154.402 44.115) rotate(45)" fill="#179978" opacity="0.8"/>
      <rect id="Rectangle_8" data-name="Rectangle 8" width="31.194" height="31.194" transform="translate(132.345 22.058) rotate(45)" fill="#179978" opacity="0.6"/>
      <path id="Rectangle_5" data-name="Rectangle 5" d="M3,0H31.194V31.194H0V3A3,3,0,0,1,3,0Z" transform="translate(66.172) rotate(45)" fill="#179978" opacity="0.5"/>
      <path id="Rectangle_6" data-name="Rectangle 6" d="M3,0H31.194V31.194H0V3A3,3,0,0,1,3,0Z" transform="translate(110.287) rotate(45)" fill="#179978" opacity="0.5"/>
    </g>
    <path id="Path_232" data-name="Path 232" d="M-116.88-4V-26.24h25.6v-4h-25.6V-52h27.6v-4h-31.84V0h32.24V-4Zm80.32-36.88a14.576,14.576,0,0,0-13.36,8.16C-52-38-56.56-40.88-62.4-40.88a13.968,13.968,0,0,0-12.88,7.76V-40h-4V0h4V-22.32c0-10.24,5.84-14.72,12.4-14.72,6.16,0,10.24,4.08,10.24,11.68V0h4V-22.32c0-10.24,5.28-14.72,12-14.72C-30.4-37.04-26-32.96-26-25.36V0h4V-25.36C-22-35.36-28.08-40.88-36.56-40.88ZM24.48-40v9.04a19.233,19.233,0,0,0-17.2-9.92A20.658,20.658,0,0,0-13.44-20,20.658,20.658,0,0,0,7.28.88a19.233,19.233,0,0,0,17.2-9.92V0h4.08V-40ZM7.6-2.96A16.835,16.835,0,0,1-9.36-20,16.835,16.835,0,0,1,7.6-37.04,16.768,16.768,0,0,1,24.48-20,16.768,16.768,0,0,1,7.6-2.96Zm37.28-29.2V-40h-4V0h4V-22.24c0-10.24,6.48-14.48,13.36-14.48v-3.84C52.8-40.56,47.6-38.48,44.88-32.16ZM66.32,0h4V-58.4h-4Zm51.6-56v25.28a18.954,18.954,0,0,0-17.2-10.16A20.608,20.608,0,0,0,80-20,20.608,20.608,0,0,0,100.72.88a18.954,18.954,0,0,0,17.2-10.16V0h4V-56ZM100.96-2.96A16.835,16.835,0,0,1,84-20a16.835,16.835,0,0,1,16.96-17.04A16.835,16.835,0,0,1,117.92-20,16.835,16.835,0,0,1,100.96-2.96Z" transform="translate(384.77 687)"/>
  </g>
</svg>
